<svg xmlns="http://www.w3.org/2000/svg" xmlns:xlink="http://www.w3.org/1999/xlink" version="1.1" x="0px" y="0px" viewBox="0 0 100 100" enable-background="new 0 0 100 100" xml:space="preserve"><path d="M90.1230469,27.4804688c0-0.409668-0.21875-0.7880859-0.5722656-0.9926758L50.5727539,4.0161133  c-0.0039063-0.0019531-0.0087891-0.0019531-0.0117188-0.0043945c-0.0097656-0.0043945-0.0195313-0.0063477-0.0283203-0.0107422  c-0.0341797-0.0185547-0.0712891-0.0302734-0.1064453-0.0449219c-0.0566406-0.0229492-0.1123047-0.0444336-0.171875-0.0585938  c-0.0244141-0.0053711-0.046875-0.0102539-0.0712891-0.0141602c-0.0322266-0.0058594-0.0644531-0.0058594-0.0976563-0.0087891  c-0.0283203-0.0019531-0.0566406-0.0107422-0.0849609-0.0107422c-0.0292969,0-0.0566406,0.0087891-0.0859375,0.0107422  c-0.0332031,0.0029297-0.0644531,0.0029297-0.0976563,0.0087891c-0.0234375,0.003418-0.046875,0.0083008-0.0703125,0.0141602  c-0.0605469,0.0141602-0.1152344,0.0361328-0.1728516,0.059082c-0.0361328,0.0141602-0.0712891,0.0258789-0.1054688,0.0439453  c-0.0107422,0.0053711-0.0234375,0.0078125-0.0341797,0.0136719c-0.0019531,0.0009766-0.0039063,0.0009766-0.0058594,0.0019531  L10.4516602,26.487793c-0.3554688,0.2045898-0.5742188,0.5830078-0.5742188,0.9926758l0.0283203,44.9863281  c0,0.0058594,0.0009766,0.0117188,0.0009766,0.015625c0,0.0078125,0.0019531,0.0136719,0.0019531,0.0214844  c0,0.0371094,0.0039063,0.0722656,0.0087891,0.109375c0.0029297,0.0273438,0.0068359,0.0546875,0.0126953,0.0800781  c0.0039063,0.0214844,0.0068359,0.0390625,0.0117188,0.0585938c0.0039063,0.0136719,0.0097656,0.0273438,0.0136719,0.0410156  c0.0078125,0.0292969,0.015625,0.0566406,0.0263672,0.0839844s0.0234375,0.0546875,0.0361328,0.0820313  c0.0117188,0.0234375,0.0214844,0.0488281,0.0351563,0.0703125c0.0019531,0.0058594,0.0029297,0.0097656,0.0058594,0.0136719  c0.0019531,0.0039063,0.0058594,0.0097656,0.0078125,0.0136719c0.0136719,0.0214844,0.0273438,0.0390625,0.0419922,0.0605469  c0.0185547,0.0273438,0.0371094,0.0527344,0.0585938,0.078125c0.0166016,0.0214844,0.0361328,0.0429688,0.0546875,0.0625  c0.0107422,0.0097656,0.0205078,0.0214844,0.0322266,0.0351563c0.0136719,0.0117188,0.0292969,0.0253906,0.0429688,0.0371094  c0.0195313,0.0175781,0.0400391,0.0332031,0.0605469,0.0488281c0.0292969,0.0214844,0.0605469,0.0449219,0.09375,0.0644531  c0.0029297,0.0019531,0.0058594,0.0039063,0.0097656,0.0078125c0.0078125,0.0039063,0.015625,0.0117188,0.0234375,0.015625  l38.9414063,22.515625c0.1777344,0.1015625,0.375,0.1542969,0.5732422,0.1542969s0.3955078-0.0527344,0.5732422-0.1542969  l38.8881836-22.484375c0.3808594-0.1855469,0.6464844-0.5742188,0.6464844-1.0273438  c0-0.046875-0.0058594-0.09375-0.0136719-0.1425781L90.1230469,27.4804688z M49.9995117,93.6679688l-0.1513672-0.0878906  L38.3208008,73.6152344h23.3588867L50.1547852,93.578125L49.9995117,93.6679688z M87.8066406,68.2011719L76.96875,49.4272461  l10.8632813-18.8154297L87.8066406,68.2011719z M12.168457,28.1416016l0.0703125-0.0415039h23.1074219L23.6938477,48.2817383  L12.168457,28.3198242V28.1416016z M69.5605469,41.1787109l5.4238281,9.3935547L63.0019531,71.3242188h-26.003418  L25.0161133,50.5722656l12.9746094-22.472168h24.019043L69.5605469,41.1787109z M38.6518555,26.9550781l11.3486328-19.65625  l11.3491211,19.65625H38.6518555z M35.6762695,71.3242188H13.034668l11.3203125-19.6074219L35.6762695,71.3242188z   M64.3242188,71.3242188l11.3203125-19.6074219l11.3222656,19.6074219H64.3242188z M87.8320313,28.1416016v0.1782227  L76.3085938,48.2822266L64.6542969,28.1000977h23.1074219L87.8320313,28.1416016z M36.0073242,26.9550781H14.2250977  L46.8754883,8.1318359L36.0073242,26.9550781z M12.1694336,30.6118164l10.8632813,18.8149414L12.1938477,68.2011719  L12.1694336,30.6118164z M36.9995117,73.6152344l10.8623047,18.8164063L15.3208008,73.6152344H36.9995117z M63.0019531,73.6152344  h21.6777344L52.1386719,92.4296875L63.0019531,73.6152344z M85.7753906,26.9550781h-21.78125l-0.6484375-1.1230469L53.125,8.1318359  L85.7753906,26.9550781z"/></svg>