<svg xmlns="http://www.w3.org/2000/svg" xmlns:xlink="http://www.w3.org/1999/xlink" version="1.1" x="0px" y="0px" viewBox="0 0 100 100" enable-background="new 0 0 100 100" xml:space="preserve"><path d="M92.8623047,85.5185547l-41.8017578-72.402832C50.840332,12.7348633,50.434082,12.5,49.9936523,12.5  c-0.4394531,0-0.8447266,0.2348633-1.0673828,0.6157227L7.0483398,85.6533203c-0.2197266,0.3789063-0.2197266,0.8505859,0,1.2294922  C7.269043,87.265625,7.6762695,87.5,8.1147461,87.5h83.7592773c0.0058594,0,0.0078125,0,0.0117188,0  c0.6796875,0,1.2304688-0.5537109,1.2304688-1.2333984C93.1162109,85.9863281,93.0224609,85.7246094,92.8623047,85.5185547z   M49.9936523,62.7646484l38.5229492,22.2724609H11.4711914L49.9936523,62.7646484z M89.1220703,83.9667969l-38.512207-22.2685547  V17.2602539L89.1220703,83.9667969z M49.378418,17.2602539v44.4379883L10.8666992,83.9628906L49.378418,17.2602539z"/></svg>