<svg xmlns="http://www.w3.org/2000/svg" xmlns:xlink="http://www.w3.org/1999/xlink" version="1.1" x="0px" y="0px" viewBox="0 0 100 100" enable-background="new 0 0 100 100" xml:space="preserve"><path d="M88.3828125,28.3964844c-0.0019531-0.0664063-0.0117188-0.1328125-0.0263672-0.1982422  c-0.0048828-0.0224609-0.0087891-0.0449219-0.0146484-0.0673828c-0.0244141-0.0810547-0.0546875-0.1611328-0.0986328-0.2373047  c-0.0009766-0.0009766-0.0009766-0.0019531-0.0009766-0.0029297l0,0c-0.0449219-0.0771484-0.0996094-0.1445313-0.1591797-0.2060547  c-0.0146484-0.0166016-0.0322266-0.0302734-0.0478516-0.0449219c-0.0507813-0.0478516-0.1044922-0.0888672-0.1621094-0.125  c-0.0117188-0.0068359-0.0195313-0.0175781-0.03125-0.0244141L50.5488281,5.9296875  c-0.3393555-0.1953125-0.7578125-0.1953125-1.097168,0L12.1586914,27.4902344  c-0.0117188,0.0068359-0.0205078,0.0166016-0.0317383,0.0244141c-0.0576172,0.0361328-0.1113281,0.0771484-0.1621094,0.125  c-0.0161133,0.0146484-0.0332031,0.0283203-0.0483398,0.0449219c-0.059082,0.0615234-0.1137695,0.1289063-0.1582031,0.2060547l0,0  c-0.0004883,0.0009766-0.0009766,0.0019531-0.0014648,0.0039063c-0.0439453,0.0751953-0.0742188,0.1552734-0.0981445,0.2363281  c-0.0068359,0.0224609-0.0102539,0.0449219-0.015625,0.0673828c-0.0146484,0.0664063-0.0234375,0.1318359-0.0263672,0.1982422  c-0.0004883,0.0146484-0.0053711,0.0273438-0.0053711,0.0429688v43.1210938c0,0.3916016,0.2089844,0.7529297,0.5473633,0.9492188  l37.2929688,21.5595703c0.0126953,0.0068359,0.0263672,0.0097656,0.0390625,0.0166016  c0.0595703,0.03125,0.121582,0.0566406,0.1865234,0.0771484c0.0219727,0.0068359,0.0429688,0.0146484,0.0649414,0.0195313  c0.0834961,0.0205078,0.168457,0.0341797,0.2583008,0.0341797c0.0893555,0,0.1748047-0.0136719,0.2573242-0.0341797  c0.0224609-0.0048828,0.0439453-0.0126953,0.065918-0.0195313c0.0644531-0.0205078,0.1264648-0.0458984,0.1855469-0.0771484  c0.0126953-0.0068359,0.0273438-0.0087891,0.0395508-0.0166016l37.2929688-21.5595703  c0.3378906-0.1962891,0.546875-0.5576172,0.546875-0.9492188V28.4394531  C88.3886719,28.4238281,88.3837891,28.4111328,88.3828125,28.3964844z M86.1953125,70.2929688L51.6425781,50.3154297  l34.5527344-19.9755859V70.2929688z M13.8041992,30.3398438l34.5537109,19.9755859L13.8041992,70.2929688V30.3398438z   M48.9038086,51.2666016v39.9541016L14.3491211,71.2441406L48.9038086,51.2666016z M51.0966797,51.2666016l34.5537109,19.9765625  L51.0966797,91.2207031V51.2666016z M85.1015625,28.4394531L50.5483398,48.4160156V8.4619141L85.1015625,28.4394531z   M49.4521484,8.4619141v39.9541016L14.8979492,28.4394531L49.4521484,8.4619141z"/></svg>