<svg xmlns="http://www.w3.org/2000/svg" xmlns:xlink="http://www.w3.org/1999/xlink" version="1.1" x="0px" y="0px" viewBox="0 0 100 100" enable-background="new 0 0 100 100" xml:space="preserve"><path d="M92.6201172,60.2490234l-4.0566406-27.7978516c-0.0009766-0.003418-0.0009766-0.0058594-0.0029297-0.0087891  c-0.0019531-0.0131836-0.0068359-0.0253906-0.0087891-0.0380859c-0.0136719-0.0678711-0.0332031-0.1323242-0.0585938-0.1943359  c-0.0097656-0.0209961-0.0195313-0.0410156-0.0302734-0.0610352c-0.0283203-0.0571289-0.0615234-0.1108398-0.1005859-0.1611328  c-0.0087891-0.0107422-0.0126953-0.0234375-0.0214844-0.0336914L74.1708984,15.0385742  c-0.125-0.1499023-0.2910156-0.2592773-0.4785156-0.3154297L46.3110352,6.5205078  c-0.074707-0.0219727-0.1503906-0.0332031-0.2255859-0.0375977c-0.0146484-0.0009766-0.0288086,0.0004883-0.043457,0.0004883  c-0.0727539-0.0014648-0.144043,0.0053711-0.2143555,0.0200195c-0.0195313,0.0039063-0.0380859,0.0068359-0.0566406,0.0117188  c-0.0810547,0.0209961-0.159668,0.0507813-0.2324219,0.0917969c-0.0039063,0.0029297-0.0083008,0.003418-0.0126953,0.0048828  L23.887207,19.0795898c-0.1035156,0.0600586-0.1958008,0.1381836-0.2724609,0.230957L7.5942383,38.7641602  c-0.0048828,0.0058594-0.0073242,0.0131836-0.0117188,0.0195313c-0.0512695,0.0649414-0.0952148,0.1357422-0.1289063,0.2124023  c-0.0063477,0.0136719-0.0097656,0.0283203-0.015625,0.0429688c-0.0249023,0.0644531-0.0429688,0.1313477-0.0541992,0.2006836  c-0.003418,0.0214844-0.0068359,0.0419922-0.0092773,0.0629883c-0.0078125,0.0810547-0.0092773,0.1640625,0.0039063,0.2485352  c0.0004883,0.0009766,0,0.0019531,0.0004883,0.003418l4.4526367,28.3164063  c0.0283203,0.1826172,0.1074219,0.3535156,0.2275391,0.4941406l14.3696289,16.8046875h0.0004883l0.0068359,0.0087891  c0.0078125,0.0087891,0.0170898,0.0136719,0.0249023,0.0224609c0.0380859,0.0410156,0.078125,0.0810547,0.1230469,0.1162109  c0.0214844,0.015625,0.0449219,0.0292969,0.0668945,0.0439453c0.034668,0.0224609,0.0693359,0.0439453,0.1064453,0.0625  c0.0283203,0.0146484,0.0571289,0.0244141,0.0859375,0.0361328c0.0224609,0.0068359,0.043457,0.0205078,0.0668945,0.0263672  l26.8193359,7.9902344c0.09375,0.0273438,0.1904297,0.0410156,0.2851563,0.0410156  c0.1728516,0,0.3447266-0.0449219,0.4980469-0.1337891l21.8056641-12.5673828  c0.0234375-0.0146484,0.0419922-0.0322266,0.0644531-0.046875c0.0263672-0.0185547,0.0527344-0.0351563,0.0771484-0.0556641  c0.0341797-0.0273438,0.0634766-0.0605469,0.0927734-0.0927734c0.0136719-0.0146484,0.0302734-0.0253906,0.0429688-0.0419922  l15.8125-19.5585938C92.5830078,60.8037109,92.6611328,60.5244141,92.6201172,60.2490234z M26.7304688,82.4492188  L14.1118164,67.6923828l16.3129883-2.0458984l0.5444336,1.3408203L26.7304688,82.4492188z M68.0214844,35.3769531  l-6.7783203,28.2998047l-28.2226563,2.1699219l-0.4775391-0.2929688l-0.8203125-2.0205078l6.6298828-27.6831055  l27.0517578-2.0805664L68.0214844,35.3769531z M38.1586914,34.8632813l-4.6831055-5.2138672l10.3862305-9.1132813  l20.0932617,12.3432617L38.1586914,34.8632813z M42.840332,18.7753906l-10.6992188,9.3876953l-6.8266602-7.5996094  L44.6333008,9.4321289L42.840332,18.7753906z M31.3896484,28.8217773l-10.9165039,9.5786133h-9.9916992l14.1162109-17.140625  L31.3896484,28.8217773z M32.7246094,30.3076172l4.6801758,5.2114258l-6.328125,26.4223633l-9.0356445-22.2602539  L32.7246094,30.3076172z M32.7993164,67.8671875l1.4238281-0.109375l21.4624023,13.1835938l-2.0029297,10.4365234  l-25.265625-7.5263672L32.7993164,67.8671875z M56.1884766,80.078125L35.9189453,67.6269531l25.7119141-1.9765625  l4.8496094,5.3984375L56.1884766,80.078125z M63.1386719,64.3388672l6.3046875-26.3237305l9.109375,22.440918l-10.5712891,9.2744141  L63.1386719,64.3388672z M69.3847656,33.8701172l-0.7275391-0.4472656l-0.1552734-0.3828125l4.4736328-16.3178711  l12.6582031,15.1103516L69.3847656,33.8701172z M67.5869141,32.5996094l-0.2392578,0.0185547L44.8676758,18.8105469  l1.9301758-10.0585938l25.2539063,7.5649414L67.5869141,32.5996094z M9.5332031,40.3979492h10.6435547l9.8598633,24.2915039  l-16.3608398,2.0517578L9.5332031,40.3979492z M56.6982422,80.9589844l10.4492188-9.1679688l7.1044922,7.9101563  L54.7871094,90.9208984L56.6982422,80.9589844z M75.7792969,78.4121094l-7.1298828-7.9384766l10.6865234-9.3769531h10.4423828  L75.7792969,78.4121094z M79.484375,60.0986328l-9.6416016-23.7539063l0.1289063-0.5351563l16.7558594-2.1010742  l3.8525391,26.3901367H79.484375z"/></svg>