<svg xmlns="http://www.w3.org/2000/svg" xmlns:xlink="http://www.w3.org/1999/xlink" version="1.1" x="0px" y="0px" viewBox="0 0 100 100" enable-background="new 0 0 100 100" xml:space="preserve"><g><path d="M89.7558594,72.3271484c0-0.0556641-0.0068359-0.109375-0.0136719-0.1630859V27.675293l-0.0058594-0.0449219   c-0.0029297-0.0688477-0.0117188-0.1367188-0.0273438-0.2050781l-0.0175781-0.0737305   c-0.0214844-0.0737305-0.0517578-0.1464844-0.0917969-0.2172852l-0.0126953-0.0302734l-0.0039063-0.0073242   c-0.0439453-0.0766602-0.1005859-0.144043-0.1601563-0.206543L89.375,26.847168   c-0.0527344-0.0488281-0.1064453-0.0917969-0.1669922-0.1289063l-0.0332031-0.0253906L50.5610352,4.3686523   c-0.3515625-0.2026367-0.7856445-0.2026367-1.1357422,0L10.8110352,26.6928711l-0.0356445,0.0273438   c-0.0571289,0.0361328-0.1103516,0.0771484-0.1611328,0.1245117l-0.0546875,0.0493164   c-0.0600586,0.0629883-0.1152344,0.1328125-0.1616211,0.2109375l-0.0004883,0.0014648l-0.0058594,0.0141602   c-0.0424805,0.0756836-0.0737305,0.1538086-0.0976563,0.234375l-0.0161133,0.0717773   c-0.0151367,0.0678711-0.0239258,0.1352539-0.027832,0.2036133l-0.0053711,0.0449219v44.6381836   c-0.0024414,0.2001953,0.0463867,0.4013672,0.1508789,0.5800781c0.1040039,0.1806641,0.2548828,0.3242188,0.4306641,0.4228516   L49.425293,95.6318359l0.0400391,0.0166016c0.0615234,0.03125,0.1259766,0.0585938,0.1933594,0.078125l0.0673828,0.0224609   c0.0864258,0.0214844,0.1748047,0.0351563,0.2666016,0.0351563c0.0922852,0,0.1811523-0.0136719,0.2675781-0.0351563   l0.0673828-0.0224609c0.0673828-0.0195313,0.1313477-0.046875,0.1918945-0.078125l0.0415039-0.0166016l38.5102539-22.2636719   C89.4726563,73.1943359,89.7558594,72.7939453,89.7558594,72.3271484z M67.5253906,38.0810547H56.65625l-5.6806641-9.8398438   h10.8691406L67.5253906,38.0810547z M64.4658203,28.2412109h20.9570313l-15.6181641,9.2456055L64.4658203,28.2412109z    M55.6757813,60.2167969H44.3139648l-6.2275391-10.7866211l5.2416992-9.0786133H56.65625l5.2441406,9.0834961   L55.6757813,60.2167969z M63.2109375,51.7041016l4.9150391,8.5126953H58.296875L63.2109375,51.7041016z M44.9692383,61.3515625   h10.050293l-5.0249023,8.7041016L44.9692383,61.3515625z M41.6918945,60.2167969h-9.8330078l4.9160156-8.515625   L41.6918945,60.2167969z M37.4301758,48.2954102l-4.5854492-7.9438477h9.171875L37.4301758,48.2954102z M55.3447266,38.0810547   H44.6386719l5.3535156-9.2719727L55.3447266,38.0810547z M57.9677734,40.3515625h9.1767578l-4.5888672,7.9472656   L57.9677734,40.3515625z M50.5610352,27.105957V8.6982422L61.1884766,27.105957H50.5610352z M49.4257813,27.105957h-10.628418   l10.628418-18.409668V27.105957z M49.0083008,28.2412109l-5.6801758,9.8398438H32.4604492l5.6816406-9.8398438H49.0083008z    M30.2714844,37.3320313l-15.65625-9.0908203h20.9052734L30.2714844,37.3320313z M29.1367188,39.2983398l-5.1953125,8.9985352   L13.5048828,30.2216797L29.1367188,39.2983398z M30.6865234,41.1542969l5.434082,9.4111328l-5.4350586,9.4130859   l-5.4335938-9.4111328L30.6865234,41.1542969z M29.8198242,60.75l-15.871582,9.3955078L24.5966797,51.703125L29.8198242,60.75z    M30.387207,61.7333984l5.4609375,9.4570313H14.409668L30.387207,61.7333984z M31.4780273,61.3515625h10.8701172   l5.6806641,9.8388672H37.1591797L31.4780273,61.3515625z M48.8579102,73.4619141V91.453125L38.4697266,73.4619141H48.8579102z    M51.1289063,73.4619141h10.3876953L51.1289063,91.4560547V73.4619141z M51.9609375,71.1904297l5.6796875-9.8388672h10.8691406   l-5.6806641,9.8388672H51.9609375z M69.5078125,61.8916016l16.0166016,9.2988281H64.1396484L69.5078125,61.8916016z    M70.0761719,60.9082031l5.3144531-9.2050781l10.6757813,18.4892578L70.0761719,60.9082031z M69.2998047,59.9794922   l-5.4326172-9.4101563l5.4345703-9.4130859l5.4345703,9.4111328L69.2998047,59.9794922z M70.9404297,39.4526367   l15.515625-9.1845703L76.046875,48.296875L70.9404297,39.4526367z M63.8115234,27.105957L53.0166016,8.4106445   L85.3525391,27.105957H63.8115234z M36.1757813,27.105957H14.6318359L46.9702148,8.4106445L36.1757813,27.105957z    M23.2851563,49.4321289L12.5151367,68.0878906V30.7783203L23.2851563,49.4321289z M37.1591797,73.4619141l10.7954102,18.6972656   L15.6137695,73.4619141H37.1591797z M62.8291016,73.4619141h21.5439453L52.0341797,92.1572266L62.8291016,73.4619141z    M76.7011719,49.4321289l10.7705078-18.6533203v37.3071289L76.7011719,49.4321289z"/></g></svg>